<svg xmlns="http://www.w3.org/2000/svg" viewBox="0 0 512 512">
  <circle cx="256" cy="256" r="240" fill="#0066CC"/>
  <circle cx="256" cy="120" r="45" fill="#FFF"/>
  <path fill="#FFF" d="M256 190c-15 0-27 12-27 27v85c0 15 12 27 27 27s27-12 27-27v-85c0-15-12-27-27-27z"/>
  <path fill="#FFF" d="M330 235c-10-10-26-10-36 0l-38 38-38-38c-10-10-26-10-36 0s-10 26 0 36l56 56v85c0 15 12 27 27 27s27-12 27-27v-85l56-56c10-10 10-26 0-36z"/>
  <path fill="#FFF" d="M160 235h50v30h-50zm142 0h50v30h-50z"/>
</svg>
